<!--?xml version="1.0" standalone="no"?-->
              <svg id="sw-js-blob-svg" viewBox="0 0 100 100" xmlns="http://www.w3.org/2000/svg" version="1.1">
                    <defs> 
                        <linearGradient id="sw-gradient" x1="0" x2="1" y1="1" y2="0">
                            <stop id="stop1" stop-color="rgba(248, 117, 55, 1)" offset="0%"></stop>
                            <stop id="stop2" stop-color="rgba(251, 168, 31, 1)" offset="100%"></stop>
                        </linearGradient>
                    </defs>
                <path fill="url(#sw-gradient)" d="M21.7,-32C29.1,-29.1,36.6,-24.6,41.1,-17.9C45.7,-11.1,47.2,-2,45.9,6.6C44.7,15.2,40.6,23.5,34.3,28.4C28,33.3,19.4,35,11.2,36.7C3.1,38.5,-4.7,40.3,-12.4,39.3C-20.1,38.4,-27.9,34.6,-32.1,28.5C-36.2,22.4,-36.8,13.9,-37.1,5.8C-37.5,-2.2,-37.8,-9.8,-35.3,-16.5C-32.8,-23.2,-27.6,-29.1,-21.3,-32.5C-15,-35.9,-7.5,-37,-0.1,-36.7C7.2,-36.5,14.4,-35,21.7,-32Z" width="100%" height="100%" transform="translate(50 50)" stroke-width="0" style="transition: all 0.3s ease 0s;"></path>
              </svg>